# xmcd
#
# Track frame offsets: 
#        151
#        22714
#        38958
#        52225
#        67175
#        75976
#        91522
#        117464
#        150022
#        164292
#
# Disc length: 2559 seconds
#
# Revision: 0
# Processed by: cddbd v1.5.1PL0 Copyright (c) Steve Scherf et al.
# Submitted via: ExactAudioCopy v0.95a5
#
DISCID=6b09fd0a
DTITLE=Bob Margolin (with Pinetop Perkins and Big Bill Morganfield) - Sa
DTITLE=n Francisco Blues Festival
DYEAR=1999
DGENRE=Blues
TTITLE0=01 Mean Old Chicago
TTITLE1=02 Hold Me To It
TTITLE2=03 Slam 'em Down - Big Bill Intro
TTITLE3=04 Don't Want To See You Go
TTITLE4=05 I Just Keep Lovin' Her
TTITLE5=06 Dead Ass Broke
TTITLE6=07 Pinetop Intro - Chicken Shack
TTITLE7=08 Grinder Man Blues
TTITLE8=09 Big Fat Mama
TTITLE9=10 Got My Mojo Workin'
EXTD=
EXTT0=
EXTT1=
EXTT2=
EXTT3=
EXTT4=
EXTT5=
EXTT6=
EXTT7=
EXTT8=
EXTT9=
PLAYORDER=
